ply
format ascii 1.0
comment made by anonymous
comment this file is a cube
element vertex 23
property float32 x
property float32 y
property float32 z
element face 6
property list uint8 int32 vertex_index
end_header

0 0 0
0 0 3000
0 0 -3000
0 4500 3000
0 -4500 3000
0 4500 -3000
0 -4500 -3000
0 4500 1725
0 4500 -1725
0 -4500 1725
0 -4500 -1725
0 3900 1725
0 3900 -1725
0 -3900 1725
0 -3900 -1725
0 5000 900
0 5000 -900
0 4500 900
0 4500 -900
0 -5000 900
0 -5000 -900
0 -4500 900
0 -4500 -900
3 3 4 5
3 4 5 6
3 19 20 21
3 20 21 22
3 15 16 17
3 16 17 18
